<?xml version="1.0" encoding="UTF-8" standalone="no"?>
<svg
   width="1081.8712"
   height="153.35913"
   viewBox="0 0 1081.8712 153.35913"
   fill="none"
   version="1.1"
   id="svg4"
   sodipodi:docname="Feedback Widget.svg"
   inkscape:version="1.2 (dc2aedaf03, 2022-05-15)"
   xmlns:inkscape="http://www.inkscape.org/namespaces/inkscape"
   xmlns:sodipodi="http://sodipodi.sourceforge.net/DTD/sodipodi-0.dtd"
   xmlns="http://www.w3.org/2000/svg"
   xmlns:svg="http://www.w3.org/2000/svg">
  <defs
     id="defs8" />
  <sodipodi:namedview
     id="namedview6"
     pagecolor="#ffffff"
     bordercolor="#666666"
     borderopacity="1.0"
     inkscape:showpageshadow="2"
     inkscape:pageopacity="0.0"
     inkscape:pagecheckerboard="true"
     inkscape:deskcolor="#d1d1d1"
     showgrid="false"
     inkscape:zoom="0.56602031"
     inkscape:cx="558.28385"
     inkscape:cy="-56.535073"
     inkscape:window-width="1366"
     inkscape:window-height="705"
     inkscape:window-x="-8"
     inkscape:window-y="-8"
     inkscape:window-maximized="1"
     inkscape:current-layer="svg4" />
  <path
     d="M 22.89065,6.328125 V 120.07813 H 0 V 6.328125 Z m 35.625,48.3594 v 18.9062 h -41.4063 v -18.9062 z m 4.375,-48.3594 v 18.9844 h -45.7813 v -18.9844 z m 44.6096,115.311995 c -5.781,0 -10.9117,-0.885 -15.3909,-2.656 -4.4271,-1.771 -8.1771,-4.323 -11.25,-7.656 -3.0729,-3.385 -5.4166,-7.474 -7.0312,-12.265595 -1.6146,-4.7917 -2.4219,-10.2604 -2.4219,-16.4063 v -6.9531 c 0,-6.875 0.7812,-12.8906 2.3438,-18.0469 1.5624,-5.2083 3.776,-9.5833 6.6406,-13.125 2.8646,-3.5416 6.3802,-6.1719 10.5468,-7.8906 4.2188,-1.7708 8.9848,-2.6563 14.2968,-2.6563 5.313,0 9.974,0.8855 13.985,2.6563 4.062,1.7187 7.421,4.3229 10.078,7.8125 2.656,3.4375 4.661,7.7083 6.015,12.8125 1.354,5.1042 2.031,11.0417 2.031,17.8125 v 10 h -56.6401 v -15.3906 h 35.1561 v -1.9532 c 0,-3.4374 -0.364,-6.302 -1.094,-8.5937 -0.729,-2.3437 -1.875,-4.0885 -3.437,-5.2344 -1.563,-1.1458 -3.646,-1.7187 -6.25,-1.7187 -2.188,0 -4.037,0.4427 -5.547,1.3281 -1.5104,0.8854 -2.7083,2.2656 -3.5938,4.1406 -0.8854,1.875 -1.5364,4.3229 -1.9531,7.3438 -0.4166,2.9687 -0.625,6.5364 -0.625,10.7031 v 6.9531 c 0,3.9063 0.3386,7.1875 1.0157,9.8438 0.677,2.6041 1.6666,4.7396 2.9687,6.4062 1.3542,1.614905 2.9945,2.786905 4.9215,3.515905 1.927,0.677 4.167,1.015 6.719,1.015 3.854,0 7.318,-0.677 10.391,-2.031 3.125,-1.40601 5.781,-3.307205 7.968,-5.703005 l 8.75,13.281005 c -1.51,1.979 -3.593,3.959 -6.25,5.938 -2.656,1.979 -5.833,3.594 -9.531,4.844 -3.698,1.25 -7.969,1.87399 -12.812,1.87399 z m 76.562,0 c -5.781,0 -10.911,-0.885 -15.39,-2.656 -4.427,-1.771 -8.177,-4.323 -11.25,-7.656 -3.073,-3.385 -5.417,-7.474 -7.032,-12.265595 -1.614,-4.7917 -2.421,-10.2604 -2.421,-16.4063 v -6.9531 c 0,-6.875 0.781,-12.8906 2.343,-18.0469 1.563,-5.2083 3.776,-9.5833 6.641,-13.125 2.864,-3.5416 6.38,-6.1719 10.547,-7.8906 4.219,-1.7708 8.984,-2.6563 14.297,-2.6563 5.312,0 9.974,0.8855 13.984,2.6563 4.062,1.7187 7.422,4.3229 10.078,7.8125 2.656,3.4375 4.662,7.7083 6.016,12.8125 1.354,5.1042 2.031,11.0417 2.031,17.8125 v 10 h -56.641 v -15.3906 h 35.157 v -1.9532 c 0,-3.4374 -0.365,-6.302 -1.094,-8.5937 -0.729,-2.3437 -1.875,-4.0885 -3.438,-5.2344 -1.562,-1.1458 -3.645,-1.7187 -6.25,-1.7187 -2.187,0 -4.036,0.4427 -5.547,1.3281 -1.51,0.8854 -2.708,2.2656 -3.593,4.1406 -0.886,1.875 -1.537,4.3229 -1.953,7.3438 -0.417,2.9687 -0.625,6.5364 -0.625,10.7031 v 6.9531 c 0,3.9063 0.338,7.1875 1.015,9.8438 0.677,2.6041 1.667,4.7396 2.969,6.4062 1.354,1.614905 2.995,2.786905 4.922,3.515905 1.927,0.677 4.167,1.015 6.719,1.015 3.854,0 7.317,-0.677 10.39,-2.031 3.125,-1.40601 5.782,-3.307205 7.969,-5.703005 l 8.75,13.281005 c -1.51,1.979 -3.594,3.959 -6.25,5.938 -2.656,1.979 -5.833,3.594 -9.531,4.844 -3.698,1.25 -7.969,1.87399 -12.813,1.87399 z m 83.438,-20.23399 V 0.078125 h 21.953 V 120.07813 l -19.844,0.078 z m -43.828,-20.624905 v -5.625 c 0,-6.875 0.573,-12.8906 1.718,-18.0469 1.198,-5.1562 2.969,-9.4531 5.313,-12.8906 2.344,-3.4375 5.208,-5.9896 8.594,-7.6562 3.437,-1.7188 7.369,-2.5782 11.796,-2.5782 4.011,0 7.527,1.0157 10.547,3.0469 3.073,1.9792 5.677,4.7657 7.813,8.3594 2.135,3.5937 3.854,7.8385 5.156,12.7344 1.302,4.8958 2.214,10.2604 2.734,16.0937 v 8.125 c -0.624,5.5209 -1.588,10.6771 -2.89,15.4688 -1.25,4.791605 -2.969,8.958605 -5.156,12.499605 -2.136,3.542 -4.714,6.328 -7.735,8.36 -3.021,1.979 -6.536,2.968 -10.547,2.968 -4.427,0 -8.359,-0.885 -11.796,-2.656 -3.386,-1.771 -6.25,-4.375 -8.594,-7.812 -2.292,-3.49 -4.037,-7.761 -5.235,-12.812805 -1.145,-5.1041 -1.718,-10.9635 -1.718,-17.5781 z m 21.875,-5.625 v 5.625 c 0,3.9584 0.182,7.3698 0.546,10.2344 0.417,2.8125 1.068,5.1302 1.954,6.9531 0.937,1.7704 2.161,3.099405 3.672,3.984405 1.51,0.83299 3.385,1.25 5.624,1.25 2.917,0 5.287,-0.729 7.11,-2.187 1.823,-1.511005 3.177,-3.568205 4.062,-6.172405 0.938,-2.6562 1.459,-5.7031 1.563,-9.1406 v -14.7656 c -0.104,-2.8646 -0.443,-5.4427 -1.016,-7.7344 -0.573,-2.2917 -1.38,-4.2448 -2.422,-5.8594 -1.041,-1.6146 -2.343,-2.8646 -3.906,-3.75 -1.51,-0.8854 -3.281,-1.3281 -5.312,-1.3281 -2.188,0 -4.063,0.4427 -5.625,1.3281 -1.511,0.8854 -2.709,2.2656 -3.594,4.1406 -0.886,1.823 -1.563,4.1928 -2.031,7.1094 -0.417,2.8646 -0.625,6.3021 -0.625,10.3125 z m 60.468,-75.0781 h 21.797 V 100.46913 l -1.562,19.609 h -20.235 z m 65.704,74.9219 v 5.5469 c 0,6.875 -0.547,12.8645 -1.641,17.9687 -1.042,5.104495 -2.682,9.374495 -4.922,12.812495 -2.187,3.438 -5,6.016 -8.437,7.734 -3.438,1.719 -7.5,2.578 -12.188,2.578 -4.219,0 -7.839,-0.989 -10.859,-2.968 -3.021,-2.032 -5.573,-4.818 -7.657,-8.36 -2.031,-3.593 -3.698,-7.786 -5,-12.577795 -1.25,-4.8437 -2.161,-10.1302 -2.734,-15.8593 v -8.2031 c 0.521,-5.625 1.406,-10.8594 2.656,-15.7032 1.302,-4.8437 2.969,-9.0364 5,-12.5781 2.032,-3.5937 4.558,-6.3802 7.578,-8.3594 3.073,-2.0312 6.693,-3.0469 10.86,-3.0469 4.791,0 8.906,0.8855 12.344,2.6563 3.437,1.7187 6.25,4.2969 8.437,7.7344 2.24,3.4375 3.88,7.7343 4.922,12.8906 1.094,5.1042 1.641,11.0156 1.641,17.7344 z m -21.797,5.5469 v -5.5469 c 0,-3.9063 -0.157,-7.2657 -0.469,-10.0781 -0.313,-2.8126 -0.886,-5.1563 -1.719,-7.0313 -0.833,-1.875 -2.031,-3.2813 -3.594,-4.2187 -1.51,-0.9376 -3.515,-1.4063 -6.015,-1.4063 -2.24,0 -4.115,0.4427 -5.625,1.3281 -1.511,0.8334 -2.813,2.0834 -3.907,3.75 -1.041,1.6146 -1.822,3.5417 -2.343,5.7813 -0.469,2.1875 -0.729,4.6093 -0.781,7.2656 v 14.7656 c 0.052,3.5938 0.494,6.7709 1.328,9.5313 0.833,2.7604 2.161,4.8956 3.984,6.406595 1.875,1.51 4.375,2.265 7.5,2.265 2.448,0 4.427,-0.416 5.938,-1.25 1.51,-0.833 2.682,-2.160995 3.515,-3.984095 0.886,-1.8229 1.458,-4.1667 1.719,-7.0313 0.312,-2.9166 0.469,-6.4323 0.469,-10.5468 z m 72.5,20.078195 V 61.562525 c 0,-2.5521 -0.313,-4.5834 -0.938,-6.0938 -0.573,-1.5104 -1.458,-2.6041 -2.656,-3.2812 -1.146,-0.7292 -2.552,-1.0938 -4.219,-1.0938 -1.875,0 -3.437,0.3906 -4.687,1.1719 -1.25,0.7813 -2.188,1.901 -2.813,3.3594 -0.573,1.4583 -0.859,3.2031 -0.859,5.2343 h -21.953 c 0,-3.6458 0.703,-7.0833 2.109,-10.3124 1.406,-3.2813 3.464,-6.1459 6.172,-8.5938 2.76,-2.5 6.042,-4.4531 9.844,-5.8594 3.802,-1.4062 8.073,-2.1094 12.812,-2.1094 5.625,0 10.625,0.9636 15,2.8907 4.375,1.875 7.839,4.8698 10.391,8.9843 2.552,4.1146 3.828,9.4532 3.828,16.0157 v 37.6561 c 0,4.739995 0.234,8.593995 0.703,11.563005 0.521,2.968 1.276,5.52 2.266,7.656 v 1.328 h -22.032 c -0.989,-2.344 -1.744,-5.26001 -2.265,-8.75 -0.469,-3.54201 -0.703,-7.109 -0.703,-10.70301 z m 2.656,-32.187595 0.078,13.125 h -8.047 c -2.083,0 -3.906,0.3385 -5.469,1.0156 -1.51,0.6771 -2.786,1.6406 -3.828,2.8906 -1.041,1.1979 -1.823,2.6042 -2.343,4.2188 -0.469,1.6146 -0.704,3.3333 -0.704,5.1562 0,2.0313 0.287,3.75 0.86,5.156395 0.573,1.40601 1.432,2.47401 2.578,3.20301 1.146,0.729 2.5,1.09399 4.062,1.09399 2.396,0 4.48,-0.495 6.25,-1.485 1.771,-0.989 3.073,-2.187 3.907,-3.592995 0.885,-1.4066 1.171,-2.7087 0.859,-3.9066 l 5,8.515605 c -0.625,1.927 -1.484,3.932 -2.578,6.016 -1.042,2.083 -2.37,4.01 -3.984,5.781 -1.615,1.771 -3.62,3.229 -6.016,4.375 -2.344,1.094 -5.13,1.64 -8.36,1.64 -4.531,0 -8.671,-1.041 -12.421,-3.124 -3.75,-2.084 -6.719,-5 -8.907,-8.75 -2.135,-3.75 -3.203,-8.204 -3.203,-13.359905 0,-4.2708 0.677,-8.125 2.031,-11.5625 1.407,-3.4896 3.49,-6.4323 6.25,-8.8281 2.761,-2.4479 6.25,-4.3229 10.469,-5.625 4.219,-1.3021 9.167,-1.9531 14.844,-1.9531 z m 66.094,34.999595 c 2.031,0 3.776,-0.416 5.234,-1.25 1.51,-0.833 2.656,-2.187 3.437,-4.062095 0.782,-1.875 1.198,-4.2969 1.25,-7.2657 h 20.547 c 0,6.3542 -1.354,11.848795 -4.062,16.484795 -2.656,4.583 -6.25,8.125 -10.781,10.625 -4.48,2.448 -9.558,3.671 -15.235,3.671 -5.677,0 -10.625,-0.911 -14.843,-2.73399 -4.219,-1.823 -7.709,-4.479 -10.469,-7.969 -2.709,-3.489 -4.766,-7.734 -6.172,-12.734005 -1.354,-5.0521 -2.031,-10.8333 -2.031,-17.3438 v -6.1718 c 0,-6.4063 0.677,-12.1354 2.031,-17.1875 1.406,-5.0521 3.463,-9.3229 6.172,-12.8125 2.76,-3.4896 6.224,-6.1459 10.39,-7.9688 4.219,-1.8229 9.167,-2.7344 14.844,-2.7344 6.094,0 11.38,1.2761 15.859,3.8282 4.48,2.5 7.969,6.1979 10.469,11.0937 2.552,4.8959 3.828,10.9375 3.828,18.125 h -20.547 c -0.052,-3.2291 -0.442,-5.9114 -1.171,-8.0469 -0.677,-2.1874 -1.745,-3.8541 -3.203,-5 -1.407,-1.1979 -3.282,-1.7968 -5.626,-1.7968 -2.447,0 -4.427,0.5208 -5.937,1.5625 -1.458,0.9896 -2.578,2.4479 -3.359,4.375 -0.73,1.875 -1.224,4.2187 -1.485,7.0312 -0.26,2.8125 -0.39,5.9896 -0.39,9.5313 v 6.1718 c 0,3.8021 0.104,7.1094 0.312,9.9219 0.261,2.7604 0.755,5.1042 1.485,7.0313 0.781,1.8746 1.901,3.281605 3.359,4.218605 1.51,0.938 3.542,1.406 6.094,1.40599 z M 556.09325,0 v 120.07813 h -21.874 V 0 Z m 44.454,35.546925 -29.766,42.0312 -17.891,20.0781 -7.734,-16.6406 13.75,-20.0781 15.547,-25.3906 z m -22.813,84.531205 -18.437,-38.828105 15.078,-13.9063 28.437,52.734405 z m 94.219,-17.03101 18.203,-96.718995 h 12.031 l 3.594,15 -19.531,98.750005 h -13.047 z m -6.25,-96.718995 14.687,96.953005 -2.5,16.797 h -14.375 l -20.39,-113.750005 z m 53.281,96.561995 14.609,-96.561995 h 22.5 l -20.234,113.750005 h -14.453 z m -9.844,-96.561995 18.36,97.266005 -1.485,16.484 h -13.046 l -19.454,-98.906205 3.672,-14.8438 z m 81.485,29.2188 v 84.531205 h -21.953 V 35.546925 Z m -22.969,-21.875 c 0,-3.3855 1.068,-6.17192 3.203,-8.35942 2.188,-2.23959 5.104,-3.35938 8.75,-3.35938 3.698,0 6.615,1.11979 8.75,3.35938 2.136,2.1875 3.203,4.97392 3.203,8.35942 0,3.3333 -1.093,6.1197 -3.281,8.3593 -2.135,2.1875 -5,3.2813 -8.594,3.2813 -3.698,0 -6.64,-1.0938 -8.828,-3.2813 -2.135,-2.2396 -3.203,-5.026 -3.203,-8.3593 z m 81.25,87.734205 V 0.078125 h 21.953 V 120.07813 l -19.844,0.078 z m -43.828,-20.624905 v -5.625 c 0,-6.875 0.573,-12.8906 1.719,-18.0469 1.198,-5.1562 2.968,-9.4531 5.312,-12.8906 2.344,-3.4375 5.208,-5.9896 8.594,-7.6562 3.437,-1.7188 7.37,-2.5782 11.797,-2.5782 4.01,0 7.526,1.0157 10.547,3.0469 3.073,1.9792 5.677,4.7657 7.812,8.3594 2.136,3.5937 3.854,7.8385 5.156,12.7344 1.302,4.8958 2.214,10.2604 2.735,16.0937 v 8.125 c -0.625,5.5209 -1.589,10.6771 -2.891,15.4688 -1.25,4.791605 -2.969,8.958605 -5.156,12.499605 -2.136,3.542 -4.714,6.328 -7.734,8.36 -3.021,1.979 -6.537,2.968 -10.547,2.968 -4.427,0 -8.36,-0.885 -11.797,-2.656 -3.386,-1.771 -6.25,-4.375 -8.594,-7.812 -2.292,-3.49 -4.036,-7.761 -5.234,-12.812805 -1.146,-5.1041 -1.719,-10.9635 -1.719,-17.5781 z m 21.875,-5.625 v 5.625 c 0,3.9584 0.182,7.3698 0.547,10.2344 0.416,2.8125 1.067,5.1302 1.953,6.9531 0.937,1.7704 2.161,3.099405 3.672,3.984405 1.51,0.83299 3.385,1.25 5.625,1.25 2.916,0 5.286,-0.729 7.109,-2.187 1.823,-1.511005 3.177,-3.568205 4.063,-6.172405 0.937,-2.6562 1.458,-5.7031 1.562,-9.1406 v -14.7656 c -0.104,-2.8646 -0.443,-5.4427 -1.015,-7.7344 -0.573,-2.2917 -1.381,-4.2448 -2.422,-5.8594 -1.042,-1.6146 -2.344,-2.8646 -3.907,-3.75 -1.51,-0.8854 -3.281,-1.3281 -5.312,-1.3281 -2.188,0 -4.063,0.4427 -5.625,1.3281 -1.511,0.8854 -2.708,2.2656 -3.594,4.1406 -0.885,1.823 -1.562,4.1928 -2.031,7.1094 -0.417,2.8646 -0.625,6.3021 -0.625,10.3125 z m 104.844,-39.6093 h 19.843 v 84.531205 c 0,7.70799 -1.484,14.00999 -4.453,18.90599 -2.916,4.94801 -7.005,8.56801 -12.265,10.86001 -5.209,2.34299 -11.302,3.51499 -18.282,3.51499 -2.656,0 -5.651,-0.364 -8.984,-1.09299 -3.281,-0.73 -6.458,-1.849 -9.531,-3.36001 -3.073,-1.458 -5.599,-3.229 -7.578,-5.312 l 7.422,-15.157 c 2.031,2.032 4.687,3.75 7.968,5.157 3.282,1.458 6.511,2.187 9.688,2.187 3.073,0 5.625,-0.495 7.656,-1.484 2.083,-0.938 3.646,-2.552 4.688,-4.844 1.093,-2.292 1.64,-5.36499 1.64,-9.21899 V 55.156225 Z m -47.188,45.2343 v -5.625 c 0,-6.875 0.651,-12.8906 1.953,-18.0469 1.302,-5.1562 3.177,-9.4531 5.625,-12.8906 2.448,-3.4375 5.443,-5.9896 8.985,-7.6562 3.593,-1.7188 7.604,-2.5782 12.031,-2.5782 4.635,0 8.516,1.0157 11.64,3.0469 3.126,1.9792 5.652,4.7657 7.579,8.3594 1.979,3.5937 3.489,7.8385 4.531,12.7344 1.094,4.8958 1.927,10.2604 2.5,16.0937 v 8.125 c -0.573,5.5209 -1.511,10.6771 -2.813,15.4688 -1.25,4.791605 -2.916,8.958605 -5,12.499605 -2.083,3.542 -4.635,6.328 -7.656,8.36 -3.021,1.979 -6.667,2.968 -10.937,2.968 -4.375,0 -8.334,-0.885 -11.875,-2.656 -3.49,-1.771 -6.485,-4.375 -8.985,-7.812 -2.448,-3.49 -4.323,-7.761 -5.625,-12.812805 -1.302,-5.1041 -1.953,-10.9635 -1.953,-17.5781 z m 21.953,-5.625 v 5.625 c 0,3.9584 0.235,7.3698 0.703,10.2344 0.521,2.8125 1.302,5.1302 2.344,6.9531 1.042,1.7704 2.37,3.099405 3.984,3.984405 1.667,0.83299 3.62,1.25 5.86,1.25 3.177,0 5.703,-0.729 7.578,-2.187 1.927,-1.511005 3.333,-3.568205 4.219,-6.172405 0.937,-2.6562 1.458,-5.7031 1.562,-9.1406 v -14.7656 c -0.052,-2.8646 -0.39,-5.4427 -1.015,-7.7344 -0.573,-2.2917 -1.381,-4.2448 -2.422,-5.8594 -1.042,-1.6146 -2.396,-2.8646 -4.063,-3.75 -1.614,-0.8854 -3.515,-1.3281 -5.703,-1.3281 -2.239,0 -4.167,0.4427 -5.781,1.3281 -1.615,0.8854 -2.969,2.2656 -4.063,4.1406 -1.041,1.823 -1.849,4.1928 -2.422,7.1094 -0.52,2.8646 -0.781,6.3021 -0.781,10.3125 z m 95.46895,46.483905 c -5.78095,0 -10.91095,-0.885 -15.39095,-2.656 -4.427,-1.771 -8.177,-4.32301 -11.25,-7.656 -3.073,-3.38501 -5.416,-7.47401 -7.031,-12.265605 -1.614,-4.7917 -2.422,-10.2604 -2.422,-16.4063 v -6.9531 c 0,-6.875 0.782,-12.8906 2.344,-18.0469 1.562,-5.2083 3.776,-9.5833 6.641,-13.125 2.864,-3.5416 6.38,-6.1719 10.547,-7.8906 4.218,-1.7708 8.984,-2.6563 14.296,-2.6563 5.31605,0 9.97605,0.8855 13.98605,2.6563 4.06,1.7187 7.42,4.3229 10.08,7.8125 2.65,3.4375 4.66,7.7083 6.01,12.8125 1.36,5.1042 2.03,11.0417 2.03,17.8125 v 10 h -56.63705 v -15.3906 h 35.15705 v -1.9532 c 0,-3.4374 -0.3701,-6.302 -1.0901,-8.5937 -0.73,-2.3437 -1.88,-4.0885 -3.44,-5.2344 -1.56,-1.1458 -3.65,-1.7187 -6.25195,-1.7187 -2.187,0 -4.036,0.4427 -5.547,1.3281 -1.51,0.8854 -2.708,2.2656 -3.593,4.1406 -0.886,1.875 -1.537,4.3229 -1.954,7.3438 -0.416,2.9687 -0.625,6.5364 -0.625,10.7031 v 6.9531 c 0,3.9063 0.339,7.1875 1.016,9.8438 0.677,2.6041 1.667,4.7396 2.969,6.4062 1.354,1.614905 2.995,2.786905 4.922,3.515905 1.927,0.677 4.16405,1.015 6.71405,1.015 3.86,0 7.32,-0.677 10.39,-2.031 3.13,-1.40601 5.79,-3.307205 7.97,-5.703005 l 8.75,13.281005 c -1.51,1.979 -3.59,3.959 -6.25,5.938 -2.65,1.979 -5.83,3.594 -9.53,4.844 -3.7,1.25 -7.97,1.87399 -12.8101,1.874 z m 79.37,-86.093205 v 16.4843 h -43.1199 v -16.4843 z m -33.2,-20.8594 h 21.8 v 79.6094 c 0,2.3437 0.23,4.1406 0.7,5.3902 0.47,1.250005 1.1701,2.136005 2.11,2.657005 0.99,0.468 2.29,0.703 3.91,0.703 1.09,0 2.11,-0.052 3.04,-0.157 0.94,-0.156 1.64,-0.312 2.11,-0.468 v 17.109 c -1.71,0.677 -3.54,1.19799 -5.47,1.563 -1.87,0.364 -4.11,0.546 -6.71,0.546 -4.38,0 -8.18,-0.833 -11.41,-2.5 -3.18,-1.666 -5.65,-4.322 -7.42,-7.968 -1.77,-3.698 -2.66,-8.542 -2.66,-14.531505 z"
     fill="white"
     id="path2"
     style="fill:#8257e5;fill-opacity:1" />
</svg>
